# xmcd
# 
# Track frame offsets:
#     150
#     33707
#     48862
#     66263
#     73963
#     90302
#     107958
#     126640
#     140419
#     148785
#     169108
#     201994
#     214144
#     230322
#     250301
#     267736
#     279798
#     292771
# 
# Disc length: 4271
# 
# Revision: 1
# Processed by: cddbd v1.5.2PL0 Copyright (c) Steve Scherf et al.
# Submitted via: BonkEnc v1.0
# 
DISCID=2210ad12
DTITLE=Larry Coryell - The Definitive Black and Blue Session - Boléro
DYEAR=1981
DGENRE=Jazz
TTITLE0=Improvisation on "Bolero"
TTITLE1=Nothing is Forever
TTITLE2=Something For Wolfgang Amadeus
TTITLE3=Prelude from "Tombeau De Couperin"
TTITLE4=Elegancia Del Sol
TTITLE5=Fancy Frogs
TTITLE6=6th Watch Hill Road
TTITLE7=Blues in Madrid
TTITLE8=Motel Time
TTITLE9=At The Airport
TTITLE10=Brazilia
TTITLE11=A Piece For larry
TTITLE12=La Pluie
TTITLE13=Waltz n°6
TTITLE14=Logical Solution
TTITLE15=Warm Weather
TTITLE16=Patty's Song
TTITLE17=Lines
EXTD=YEAR: 1981
EXTT0=
EXTT1=
EXTT2=
EXTT3=
EXTT4=
EXTT5=
EXTT6=
EXTT7=
EXTT8=
EXTT9=
EXTT10=
EXTT11=
EXTT12=
EXTT13=
EXTT14=
EXTT15=
EXTT16=
EXTT17=
PLAYORDER=
